<svg id="visual" viewBox="0 0 1200 800" width="1200" height="800" xmlns="http://www.w3.org/2000/svg" xmlns:xlink="http://www.w3.org/1999/xlink" version="1.1"><rect x="0" y="0" width="1200" height="800" fill="#E9FFEC"></rect><g fill="none" stroke="#cdf1ca" stroke-width="4"><path d="M0 -149.1L33.5 -46.1L141.8 -46.1L54.2 17.6L87.7 120.6L0 57L-87.7 120.6L-54.2 17.6L-141.8 -46.1L-33.5 -46.1Z" transform="translate(1068 163)"></path><path d="M0 -84L18.9 -26L79.9 -26L30.5 9.9L49.4 68L0 32.1L-49.4 68L-30.5 9.9L-79.9 -26L-18.9 -26Z" transform="translate(214 724)"></path><path d="M0 -96.3L21.6 -29.7L91.6 -29.7L35 11.4L56.6 77.9L0 36.8L-56.6 77.9L-35 11.4L-91.6 -29.7L-21.6 -29.7Z" transform="translate(608 47)"></path></g></svg>