<svg id="visual" viewBox="0 0 1080 200" width="1080" height="200" xmlns="http://www.w3.org/2000/svg" xmlns:xlink="http://www.w3.org/1999/xlink" version="1.1"><rect x="0" y="0" width="1080" height="200" fill="#E9FFEC"></rect><path d="M0 30L13.8 30.3C27.7 30.7 55.3 31.3 83 31C110.7 30.7 138.3 29.3 166 28.5C193.7 27.7 221.3 27.3 249 26.8C276.7 26.3 304.3 25.7 332 26.5C359.7 27.3 387.3 29.7 415 33.2C442.7 36.7 470.3 41.3 498.2 42.3C526 43.3 554 40.7 581.8 37C609.7 33.3 637.3 28.7 665 31.3C692.7 34 720.3 44 748 49.2C775.7 54.3 803.3 54.7 831 51.7C858.7 48.7 886.3 42.3 914 42.3C941.7 42.3 969.3 48.7 997 49.8C1024.7 51 1052.3 47 1066.2 45L1080 43L1080 0L1066.2 0C1052.3 0 1024.7 0 997 0C969.3 0 941.7 0 914 0C886.3 0 858.7 0 831 0C803.3 0 775.7 0 748 0C720.3 0 692.7 0 665 0C637.3 0 609.7 0 581.8 0C554 0 526 0 498.2 0C470.3 0 442.7 0 415 0C387.3 0 359.7 0 332 0C304.3 0 276.7 0 249 0C221.3 0 193.7 0 166 0C138.3 0 110.7 0 83 0C55.3 0 27.7 0 13.8 0L0 0Z" fill="#ffffff" stroke-linecap="round" stroke-linejoin="miter"></path></svg>