<svg id="visual" viewBox="0 0 1200 720" width="1200" height="720" xmlns="http://www.w3.org/2000/svg" xmlns:xlink="http://www.w3.org/1999/xlink" version="1.1"><rect x="0" y="0" width="1200" height="720" fill="#f7cbdd"></rect><defs><linearGradient id="grad1_0" x1="40%" y1="0%" x2="100%" y2="100%"><stop offset="16.666666666666664%" stop-color="#ff9dce" stop-opacity="1"></stop><stop offset="83.33333333333334%" stop-color="#ff9dce" stop-opacity="1"></stop></linearGradient></defs><defs><linearGradient id="grad1_1" x1="40%" y1="0%" x2="100%" y2="100%"><stop offset="16.666666666666664%" stop-color="#ff9dce" stop-opacity="1"></stop><stop offset="83.33333333333334%" stop-color="#fea9d1" stop-opacity="1"></stop></linearGradient></defs><defs><linearGradient id="grad1_2" x1="40%" y1="0%" x2="100%" y2="100%"><stop offset="16.666666666666664%" stop-color="#fcb4d5" stop-opacity="1"></stop><stop offset="83.33333333333334%" stop-color="#fea9d1" stop-opacity="1"></stop></linearGradient></defs><defs><linearGradient id="grad1_3" x1="40%" y1="0%" x2="100%" y2="100%"><stop offset="16.666666666666664%" stop-color="#fcb4d5" stop-opacity="1"></stop><stop offset="83.33333333333334%" stop-color="#fac0d9" stop-opacity="1"></stop></linearGradient></defs><defs><linearGradient id="grad1_4" x1="40%" y1="0%" x2="100%" y2="100%"><stop offset="16.666666666666664%" stop-color="#f7cbdd" stop-opacity="1"></stop><stop offset="83.33333333333334%" stop-color="#fac0d9" stop-opacity="1"></stop></linearGradient></defs><defs><linearGradient id="grad2_0" x1="0%" y1="0%" x2="60%" y2="100%"><stop offset="16.666666666666664%" stop-color="#ff9dce" stop-opacity="1"></stop><stop offset="83.33333333333334%" stop-color="#ff9dce" stop-opacity="1"></stop></linearGradient></defs><defs><linearGradient id="grad2_1" x1="0%" y1="0%" x2="60%" y2="100%"><stop offset="16.666666666666664%" stop-color="#fea9d1" stop-opacity="1"></stop><stop offset="83.33333333333334%" stop-color="#ff9dce" stop-opacity="1"></stop></linearGradient></defs><defs><linearGradient id="grad2_2" x1="0%" y1="0%" x2="60%" y2="100%"><stop offset="16.666666666666664%" stop-color="#fea9d1" stop-opacity="1"></stop><stop offset="83.33333333333334%" stop-color="#fcb4d5" stop-opacity="1"></stop></linearGradient></defs><defs><linearGradient id="grad2_3" x1="0%" y1="0%" x2="60%" y2="100%"><stop offset="16.666666666666664%" stop-color="#fac0d9" stop-opacity="1"></stop><stop offset="83.33333333333334%" stop-color="#fcb4d5" stop-opacity="1"></stop></linearGradient></defs><defs><linearGradient id="grad2_4" x1="0%" y1="0%" x2="60%" y2="100%"><stop offset="16.666666666666664%" stop-color="#fac0d9" stop-opacity="1"></stop><stop offset="83.33333333333334%" stop-color="#f7cbdd" stop-opacity="1"></stop></linearGradient></defs><g transform="translate(1200, 0)"><path d="M0 524.8C-92.6 511.5 -185.2 498.3 -262.4 454.5C-339.6 410.7 -401.4 336.3 -442.5 255.5C-483.7 174.7 -504.2 87.3 -524.8 0L0 0Z" fill="#f8c5db"></path><path d="M0 419.8C-74.1 409.2 -148.2 398.6 -209.9 363.6C-271.7 328.5 -321.1 269.1 -354 204.4C-387 139.7 -403.4 69.9 -419.8 0L0 0Z" fill="#fbbad7"></path><path d="M0 314.9C-55.6 306.9 -111.1 299 -157.4 272.7C-203.8 246.4 -240.8 201.8 -265.5 153.3C-290.2 104.8 -302.5 52.4 -314.9 0L0 0Z" fill="#fdafd3"></path><path d="M0 209.9C-37 204.6 -74.1 199.3 -105 181.8C-135.8 164.3 -160.5 134.5 -177 102.2C-193.5 69.9 -201.7 34.9 -209.9 0L0 0Z" fill="#fea3d0"></path><path d="M0 105C-18.5 102.3 -37 99.7 -52.5 90.9C-67.9 82.1 -80.3 67.3 -88.5 51.1C-96.7 34.9 -100.8 17.5 -105 0L0 0Z" fill="#ff9dce"></path></g><g transform="translate(0, 720)"><path d="M0 -524.8C91.4 -510.9 182.9 -496.9 262.4 -454.5C341.9 -412 409.5 -341 451.2 -260.5C492.9 -180 508.9 -90 524.8 0L0 0Z" fill="#f8c5db"></path><path d="M0 -419.8C73.2 -408.7 146.3 -397.6 209.9 -363.6C273.5 -329.6 327.6 -272.8 361 -208.4C394.4 -144 407.1 -72 419.8 0L0 0Z" fill="#fbbad7"></path><path d="M0 -314.9C54.9 -306.5 109.7 -298.2 157.4 -272.7C205.1 -247.2 245.7 -204.6 270.7 -156.3C295.8 -108 305.3 -54 314.9 0L0 0Z" fill="#fdafd3"></path><path d="M0 -209.9C36.6 -204.3 73.2 -198.8 105 -181.8C136.8 -164.8 163.8 -136.4 180.5 -104.2C197.2 -72 203.5 -36 209.9 0L0 0Z" fill="#fea3d0"></path><path d="M0 -105C18.3 -102.2 36.6 -99.4 52.5 -90.9C68.4 -82.4 81.9 -68.2 90.2 -52.1C98.6 -36 101.8 -18 105 0L0 0Z" fill="#ff9dce"></path></g></svg>