<svg id="visual" viewBox="0 0 400 600" width="400" height="600" xmlns="http://www.w3.org/2000/svg" xmlns:xlink="http://www.w3.org/1999/xlink" version="1.1"><g transform="translate(188.87565874829872 294.42574631045113)"><path d="M76.3 -132.7C88.4 -110.9 80.6 -72.1 90.9 -43.3C101.3 -14.6 129.8 4.1 134.3 24C138.8 44 119.3 65.2 98.8 81.6C78.3 97.9 56.9 109.4 30.9 127C4.9 144.6 -25.7 168.2 -52.9 166.5C-80.1 164.8 -103.9 137.7 -102.8 107C-101.6 76.2 -75.6 41.6 -77.3 12.7C-79.1 -16.3 -108.7 -39.7 -112.3 -59.4C-116 -79.1 -93.7 -95.1 -70.6 -111.9C-47.6 -128.7 -23.8 -146.3 4.1 -152.8C32.1 -159.2 64.2 -154.5 76.3 -132.7" fill="#FF58AC"></path></g></svg>